<mxfile host="app.diagrams.net" modified="2024-05-16T05:34:21.898Z" agent="Mozilla/5.0 (Windows NT 10.0; Win64; x64) AppleWebKit/537.36 (KHTML, like Gecko) Chrome/124.0.0.0 Safari/537.36" etag="WV_LpjLcVJ61sMfc1vY_" version="24.4.2" type="device">
  <diagram name="Page-1" id="ETxL429KA-YHsfBFcZ1R">
    <mxGraphModel dx="860" dy="449" grid="1" gridSize="10" guides="1" tooltips="1" connect="1" arrows="1" fold="1" page="1" pageScale="1" pageWidth="850" pageHeight="1100" math="0" shadow="0">
      <root>
        <mxCell id="0" />
        <mxCell id="1" parent="0" />
        <mxCell id="-eZchoJXFSDh9sBf2nId-1" value="" style="shape=umlLifeline;perimeter=lifelinePerimeter;whiteSpace=wrap;html=1;container=1;dropTarget=0;collapsible=0;recursiveResize=0;outlineConnect=0;portConstraint=eastwest;newEdgeStyle={&quot;curved&quot;:0,&quot;rounded&quot;:0};participant=umlActor;" vertex="1" parent="1">
          <mxGeometry x="70" y="40" width="20" height="680" as="geometry" />
        </mxCell>
        <mxCell id="-eZchoJXFSDh9sBf2nId-6" value="" style="html=1;points=[[0,0,0,0,5],[0,1,0,0,-5],[1,0,0,0,5],[1,1,0,0,-5]];perimeter=orthogonalPerimeter;outlineConnect=0;targetShapes=umlLifeline;portConstraint=eastwest;newEdgeStyle={&quot;curved&quot;:0,&quot;rounded&quot;:0};" vertex="1" parent="-eZchoJXFSDh9sBf2nId-1">
          <mxGeometry x="5" y="80" width="10" height="40" as="geometry" />
        </mxCell>
        <mxCell id="-eZchoJXFSDh9sBf2nId-2" value="Calling module :Android app" style="shape=umlLifeline;perimeter=lifelinePerimeter;whiteSpace=wrap;html=1;container=1;dropTarget=0;collapsible=0;recursiveResize=0;outlineConnect=0;portConstraint=eastwest;newEdgeStyle={&quot;curved&quot;:0,&quot;rounded&quot;:0};" vertex="1" parent="1">
          <mxGeometry x="190" y="40" width="100" height="680" as="geometry" />
        </mxCell>
        <mxCell id="-eZchoJXFSDh9sBf2nId-8" value="" style="html=1;points=[[0,0,0,0,5],[0,1,0,0,-5],[1,0,0,0,5],[1,1,0,0,-5]];perimeter=orthogonalPerimeter;outlineConnect=0;targetShapes=umlLifeline;portConstraint=eastwest;newEdgeStyle={&quot;curved&quot;:0,&quot;rounded&quot;:0};" vertex="1" parent="-eZchoJXFSDh9sBf2nId-2">
          <mxGeometry x="45" y="80" width="10" height="560" as="geometry" />
        </mxCell>
        <mxCell id="-eZchoJXFSDh9sBf2nId-9" value="" style="html=1;points=[[0,0,0,0,5],[0,1,0,0,-5],[1,0,0,0,5],[1,1,0,0,-5]];perimeter=orthogonalPerimeter;outlineConnect=0;targetShapes=umlLifeline;portConstraint=eastwest;newEdgeStyle={&quot;curved&quot;:0,&quot;rounded&quot;:0};" vertex="1" parent="-eZchoJXFSDh9sBf2nId-2">
          <mxGeometry x="50" y="150" width="10" height="40" as="geometry" />
        </mxCell>
        <mxCell id="-eZchoJXFSDh9sBf2nId-10" value="Create UDP&amp;nbsp;&lt;div&gt;connection stream&lt;/div&gt;" style="html=1;align=left;spacingLeft=2;endArrow=block;rounded=0;edgeStyle=orthogonalEdgeStyle;curved=0;rounded=0;" edge="1" target="-eZchoJXFSDh9sBf2nId-9" parent="-eZchoJXFSDh9sBf2nId-2">
          <mxGeometry relative="1" as="geometry">
            <mxPoint x="55" y="130" as="sourcePoint" />
            <Array as="points">
              <mxPoint x="85" y="160" />
            </Array>
          </mxGeometry>
        </mxCell>
        <mxCell id="-eZchoJXFSDh9sBf2nId-3" value="Audio manager :Android OS" style="shape=umlLifeline;perimeter=lifelinePerimeter;whiteSpace=wrap;html=1;container=1;dropTarget=0;collapsible=0;recursiveResize=0;outlineConnect=0;portConstraint=eastwest;newEdgeStyle={&quot;curved&quot;:0,&quot;rounded&quot;:0};" vertex="1" parent="1">
          <mxGeometry x="350" y="40" width="100" height="680" as="geometry" />
        </mxCell>
        <mxCell id="-eZchoJXFSDh9sBf2nId-14" value="Encode audio&amp;nbsp;&lt;div&gt;to byte array&lt;/div&gt;" style="html=1;align=left;spacingLeft=2;endArrow=block;rounded=0;edgeStyle=orthogonalEdgeStyle;curved=0;rounded=0;" edge="1" target="-eZchoJXFSDh9sBf2nId-13" parent="-eZchoJXFSDh9sBf2nId-3">
          <mxGeometry relative="1" as="geometry">
            <mxPoint x="55" y="250" as="sourcePoint" />
            <Array as="points">
              <mxPoint x="85" y="280" />
            </Array>
          </mxGeometry>
        </mxCell>
        <mxCell id="-eZchoJXFSDh9sBf2nId-11" value="" style="html=1;points=[[0,0,0,0,5],[0,1,0,0,-5],[1,0,0,0,5],[1,1,0,0,-5]];perimeter=orthogonalPerimeter;outlineConnect=0;targetShapes=umlLifeline;portConstraint=eastwest;newEdgeStyle={&quot;curved&quot;:0,&quot;rounded&quot;:0};" vertex="1" parent="-eZchoJXFSDh9sBf2nId-3">
          <mxGeometry x="45" y="200" width="10" height="160" as="geometry" />
        </mxCell>
        <mxCell id="-eZchoJXFSDh9sBf2nId-13" value="" style="html=1;points=[[0,0,0,0,5],[0,1,0,0,-5],[1,0,0,0,5],[1,1,0,0,-5]];perimeter=orthogonalPerimeter;outlineConnect=0;targetShapes=umlLifeline;portConstraint=eastwest;newEdgeStyle={&quot;curved&quot;:0,&quot;rounded&quot;:0};" vertex="1" parent="-eZchoJXFSDh9sBf2nId-3">
          <mxGeometry x="50" y="270" width="10" height="40" as="geometry" />
        </mxCell>
        <mxCell id="-eZchoJXFSDh9sBf2nId-4" value="Video manager :Android OS" style="shape=umlLifeline;perimeter=lifelinePerimeter;whiteSpace=wrap;html=1;container=1;dropTarget=0;collapsible=0;recursiveResize=0;outlineConnect=0;portConstraint=eastwest;newEdgeStyle={&quot;curved&quot;:0,&quot;rounded&quot;:0};" vertex="1" parent="1">
          <mxGeometry x="510" y="40" width="100" height="680" as="geometry" />
        </mxCell>
        <mxCell id="-eZchoJXFSDh9sBf2nId-17" value="" style="html=1;points=[[0,0,0,0,5],[0,1,0,0,-5],[1,0,0,0,5],[1,1,0,0,-5]];perimeter=orthogonalPerimeter;outlineConnect=0;targetShapes=umlLifeline;portConstraint=eastwest;newEdgeStyle={&quot;curved&quot;:0,&quot;rounded&quot;:0};" vertex="1" parent="-eZchoJXFSDh9sBf2nId-4">
          <mxGeometry x="45" y="400" width="10" height="160" as="geometry" />
        </mxCell>
        <mxCell id="-eZchoJXFSDh9sBf2nId-5" value=":Ad hoc network" style="shape=umlLifeline;perimeter=lifelinePerimeter;whiteSpace=wrap;html=1;container=1;dropTarget=0;collapsible=0;recursiveResize=0;outlineConnect=0;portConstraint=eastwest;newEdgeStyle={&quot;curved&quot;:0,&quot;rounded&quot;:0};" vertex="1" parent="1">
          <mxGeometry x="670" y="40" width="100" height="680" as="geometry" />
        </mxCell>
        <mxCell id="-eZchoJXFSDh9sBf2nId-25" value="" style="html=1;points=[[0,0,0,0,5],[0,1,0,0,-5],[1,0,0,0,5],[1,1,0,0,-5]];perimeter=orthogonalPerimeter;outlineConnect=0;targetShapes=umlLifeline;portConstraint=eastwest;newEdgeStyle={&quot;curved&quot;:0,&quot;rounded&quot;:0};" vertex="1" parent="-eZchoJXFSDh9sBf2nId-5">
          <mxGeometry x="45" y="600" width="10" height="40" as="geometry" />
        </mxCell>
        <mxCell id="-eZchoJXFSDh9sBf2nId-7" value="Make voice call" style="html=1;verticalAlign=bottom;endArrow=block;curved=0;rounded=0;" edge="1" parent="1">
          <mxGeometry width="80" relative="1" as="geometry">
            <mxPoint x="85" y="140" as="sourcePoint" />
            <mxPoint x="235" y="140" as="targetPoint" />
          </mxGeometry>
        </mxCell>
        <mxCell id="-eZchoJXFSDh9sBf2nId-12" value="Initialize audio manager" style="html=1;verticalAlign=bottom;endArrow=block;curved=0;rounded=0;" edge="1" parent="1">
          <mxGeometry width="80" relative="1" as="geometry">
            <mxPoint x="245" y="259" as="sourcePoint" />
            <mxPoint x="395" y="259" as="targetPoint" />
          </mxGeometry>
        </mxCell>
        <mxCell id="-eZchoJXFSDh9sBf2nId-15" value="loop" style="shape=umlFrame;whiteSpace=wrap;html=1;pointerEvents=0;" vertex="1" parent="1">
          <mxGeometry x="320" y="280" width="200" height="130" as="geometry" />
        </mxCell>
        <mxCell id="-eZchoJXFSDh9sBf2nId-16" value="return byte array" style="html=1;verticalAlign=bottom;endArrow=open;dashed=1;endSize=8;curved=0;rounded=0;" edge="1" parent="1">
          <mxGeometry relative="1" as="geometry">
            <mxPoint x="395" y="380" as="sourcePoint" />
            <mxPoint x="245" y="380" as="targetPoint" />
          </mxGeometry>
        </mxCell>
        <mxCell id="-eZchoJXFSDh9sBf2nId-18" value="Initialize video manager" style="html=1;verticalAlign=bottom;endArrow=block;curved=0;rounded=0;" edge="1" parent="1">
          <mxGeometry width="80" relative="1" as="geometry">
            <mxPoint x="245" y="460" as="sourcePoint" />
            <mxPoint x="555" y="460" as="targetPoint" />
          </mxGeometry>
        </mxCell>
        <mxCell id="-eZchoJXFSDh9sBf2nId-19" value="loop" style="shape=umlFrame;whiteSpace=wrap;html=1;pointerEvents=0;" vertex="1" parent="1">
          <mxGeometry x="480" y="480" width="200" height="130" as="geometry" />
        </mxCell>
        <mxCell id="-eZchoJXFSDh9sBf2nId-22" value="" style="html=1;points=[[0,0,0,0,5],[0,1,0,0,-5],[1,0,0,0,5],[1,1,0,0,-5]];perimeter=orthogonalPerimeter;outlineConnect=0;targetShapes=umlLifeline;portConstraint=eastwest;newEdgeStyle={&quot;curved&quot;:0,&quot;rounded&quot;:0};" vertex="1" parent="1">
          <mxGeometry x="560.49" y="510" width="10" height="40" as="geometry" />
        </mxCell>
        <mxCell id="-eZchoJXFSDh9sBf2nId-23" value="Encode video&lt;div&gt;to byte array&lt;/div&gt;" style="html=1;align=left;spacingLeft=2;endArrow=block;rounded=0;edgeStyle=orthogonalEdgeStyle;curved=0;rounded=0;" edge="1" target="-eZchoJXFSDh9sBf2nId-22" parent="1">
          <mxGeometry relative="1" as="geometry">
            <mxPoint x="565.49" y="490" as="sourcePoint" />
            <Array as="points">
              <mxPoint x="595.49" y="520" />
            </Array>
          </mxGeometry>
        </mxCell>
        <mxCell id="-eZchoJXFSDh9sBf2nId-24" value="return byte array" style="html=1;verticalAlign=bottom;endArrow=open;dashed=1;endSize=8;curved=0;rounded=0;" edge="1" parent="1">
          <mxGeometry relative="1" as="geometry">
            <mxPoint x="555" y="580" as="sourcePoint" />
            <mxPoint x="245" y="580" as="targetPoint" />
          </mxGeometry>
        </mxCell>
        <mxCell id="-eZchoJXFSDh9sBf2nId-26" value="loop" style="shape=umlFrame;whiteSpace=wrap;html=1;pointerEvents=0;" vertex="1" parent="1">
          <mxGeometry x="160" y="630" width="600" height="60" as="geometry" />
        </mxCell>
        <mxCell id="-eZchoJXFSDh9sBf2nId-27" value="Transmit byte array to respective ports" style="html=1;verticalAlign=bottom;endArrow=block;curved=0;rounded=0;" edge="1" parent="1">
          <mxGeometry width="80" relative="1" as="geometry">
            <mxPoint x="244.9999999999999" y="660.9999999999999" as="sourcePoint" />
            <mxPoint x="715" y="660.9999999999999" as="targetPoint" />
          </mxGeometry>
        </mxCell>
      </root>
    </mxGraphModel>
  </diagram>
</mxfile>
